<svg width="818" height="574" viewBox="0 0 818 574" fill="none" xmlns="http://www.w3.org/2000/svg">
<path d="M3.08691 84.7324C7.25123 82.1627 9.97223 78.0565 9.99023 78.0293C15.9729 82.8336 18.8792 75.9915 18.8896 75.9668C9.29245 68.0851 21.3598 55.4763 21.4326 55.4004C18.466 67.6027 28.5164 70.5822 32.875 67.2588C37.2346 63.9362 37.4158 59.4092 33.8438 56.7178C30.2729 54.0248 25.7921 56.5452 26.5781 59.3525C27.3635 62.1521 31.7602 62.4456 31.7852 62.4473C31.7713 62.4662 29.3529 65.7636 25.6104 63.5928C21.8716 61.424 23.6578 52.8892 23.6719 52.8223C34.4171 44.2542 34.7812 32.9802 34.7832 32.9131C34.8298 32.9118 46.7579 32.5775 55.8213 22.4004C55.8213 22.4004 64.9028 20.6821 67.2031 24.2344C69.5041 27.7853 65.9922 30.0771 65.9922 30.0771C65.9922 30.0771 65.6893 25.8949 62.7236 25.1504C59.7567 24.4051 57.0922 28.6453 59.9375 32.0254C62.7827 35.4062 67.566 35.2333 71.0781 31.1084C74.5893 26.9839 71.4413 17.4738 58.5449 20.2812C58.5449 20.2812 71.9259 8.76508 80.2803 17.874C80.2915 17.8698 87.5418 15.1201 82.46 9.45312C82.4782 9.44232 86.825 6.86627 89.5449 2.92188C89.5449 2.92188 80.6441 -1.54694 64.6602 10.1396C64.6602 10.1396 63.8434 0.944519 54.3984 5.58594C54.3984 5.58594 61.2994 11.429 57.9414 16.1553C56.1539 18.6694 52.0025 22.0105 47.5791 24.6133C42.095 27.8396 34.9898 27.0939 30.4238 22.7725C26.7332 19.281 25.7017 13.8318 28.3057 9.55176C28.4732 9.27533 28.6552 9.00238 28.8496 8.73633C31.9562 4.48523 35.4823 7.96588 35.5088 7.99219C35.5088 7.99219 32.5118 10.8284 35.3271 13.835C38.1425 16.8434 45.6803 13.4919 43.5 7.81934C41.3204 2.14819 32.7837 1.46045 27.8799 5.41309C27.8799 5.41309 28.7884 3.52356 25.4277 0C25.4277 0 26.0036 12.9186 19.041 18.0176C13.6614 24.5952 0.0450634 24.0633 0 24.0615C3.72357 27.2407 5.72266 26.3828 5.72266 26.3828C1.54449 31.0223 2.27105 39.1008 8.26465 41.1631C14.2582 43.2253 17.8003 36.0929 14.6221 33.4297C11.4555 30.7753 8.47009 33.5781 8.44629 33.6006C8.44629 33.6006 4.72349 30.2498 9.23242 27.2998C9.51555 27.1149 9.80362 26.9426 10.0947 26.7832C14.6178 24.3192 20.3768 25.2957 24.0664 28.7881C28.6323 33.1088 29.4193 39.832 26.0098 45.0225C23.2603 49.2081 19.729 53.1347 17.0732 54.8262C12.0786 58.0063 5.90332 51.4756 5.90332 51.4756C1.01218 60.3891 10.667 61.1815 10.7168 61.1855C-1.58734 76.2533 3.05148 84.6687 3.08691 84.7324ZM814.354 84.7324C814.354 84.7324 819.076 76.3108 806.726 61.1855C806.776 61.1815 816.43 60.3887 811.539 51.4756C811.539 51.4756 805.364 58.0063 800.368 54.8262C797.712 53.1348 794.182 49.2081 791.432 45.0225C788.022 39.832 788.81 33.1088 793.376 28.7881C797.066 25.2957 802.825 24.3191 807.347 26.7832C807.639 26.9426 807.927 27.1149 808.209 27.2998C812.719 30.2498 808.995 33.6006 808.995 33.6006C808.976 33.5826 805.989 30.7732 802.82 33.4297C799.641 36.0928 803.184 43.2253 809.178 41.1631C815.171 39.1008 815.897 31.0223 811.719 26.3828C811.719 26.3828 813.718 27.2407 817.441 24.0615C817.411 24.0627 803.783 24.5986 798.401 18.0176C791.439 12.9186 792.013 0 792.013 0C788.653 3.52356 789.562 5.41309 789.562 5.41309C784.658 1.46045 776.122 2.14819 773.941 7.81934C771.762 13.4919 779.3 16.8434 782.115 13.835C784.93 10.8284 781.933 7.99219 781.933 7.99219C781.962 7.96289 785.487 4.48712 788.593 8.73633C788.787 9.00238 788.968 9.27533 789.137 9.55176C791.741 13.8318 790.709 19.281 787.018 22.7725C782.452 27.0939 775.346 27.8396 769.862 24.6133C765.44 22.0105 761.289 18.6694 759.501 16.1553C756.142 11.429 763.043 5.58594 763.043 5.58594C753.599 0.944519 752.782 10.1396 752.782 10.1396C736.797 -1.54694 727.897 2.92188 727.897 2.92188C730.62 6.87134 734.974 9.44885 734.981 9.45312C729.897 15.1245 737.162 17.874 737.162 17.874C745.516 8.7652 758.896 20.2812 758.896 20.2812C746.001 17.4738 742.852 26.9839 746.363 31.1084C749.875 35.2338 754.658 35.4064 757.504 32.0254C760.35 28.6453 757.685 24.4051 754.719 25.1504C751.753 25.8949 751.45 30.0771 751.45 30.0771C751.45 30.0771 747.938 27.7853 750.238 24.2344C752.54 20.6821 761.621 22.4004 761.621 22.4004C770.689 32.5829 782.624 32.9122 782.659 32.9131C782.661 32.9805 783.024 44.2544 793.77 52.8223C793.784 52.8903 795.571 61.4241 791.832 63.5928C788.091 65.762 785.674 62.4712 785.656 62.4473C785.691 62.4449 790.08 62.1489 790.863 59.3525C791.65 56.5453 787.169 54.0249 783.598 56.7178C780.027 59.4092 780.207 63.9362 784.567 67.2588C788.926 70.5821 798.976 67.6026 796.01 55.4004C796.084 55.4777 808.148 68.0855 798.553 75.9668C798.564 75.9933 801.47 82.833 807.451 78.0293C807.472 78.061 810.192 82.1641 814.354 84.7324ZM1.38574 17.5947C10.8895 17.5947 18.5947 10.3037 18.5947 1.31055H1.38574V17.5947ZM816.057 1.31055H798.848C798.848 10.3037 806.552 17.5947 816.057 17.5947V1.31055ZM148.813 28.7969C152.427 28.7969 155.357 26.0252 155.357 22.6045C155.357 20.546 154.296 18.7211 152.662 17.5947H157.458L163.898 23.6895L170.339 17.5947H175.957C176.474 18.9937 177.88 19.9969 179.533 19.9971V17.5947H203.098V15.2285H179.533V12.8262C177.88 12.8264 176.474 13.8306 175.957 15.2285H170.339L163.898 9.13477L157.458 15.2285H152.662C154.296 14.1031 155.357 12.2781 155.357 10.2188C155.357 6.79901 152.427 4.02734 148.813 4.02734C145.2 4.02759 142.269 6.79913 142.269 10.2188C142.269 12.2781 143.331 14.1031 144.966 15.2285H140.169L133.729 9.13477L127.29 15.2285H121.67C121.154 13.8306 119.748 12.8264 118.095 12.8262V15.2285H94.5303V17.5947H118.095V19.9971C119.748 19.9969 121.154 18.9937 121.67 17.5947H127.29L133.729 23.6895L140.169 17.5947H144.965C143.331 18.7211 142.269 20.546 142.269 22.6045C142.269 26.025 145.2 28.7966 148.813 28.7969ZM668.627 28.7969C672.242 28.7969 675.172 26.0252 675.172 22.6045C675.172 20.546 674.111 18.7211 672.477 17.5947H677.272L683.712 23.6895L690.152 17.5947H695.771C696.289 18.9937 697.694 19.9969 699.348 19.9971V17.5947H722.911V15.2285H699.348V12.8262C697.694 12.8264 696.289 13.8306 695.771 15.2285H690.152L683.712 9.13477L677.272 15.2285H672.477C674.111 14.1031 675.172 12.2781 675.172 10.2188C675.172 6.79901 672.242 4.02734 668.627 4.02734C665.013 4.02759 662.084 6.79913 662.084 10.2188C662.084 12.2781 663.145 14.1031 664.779 15.2285H659.983L653.543 9.13477L647.104 15.2285H641.485C640.968 13.8304 639.561 12.8262 637.907 12.8262V15.2285H614.344V17.5947H637.907V19.9971C639.561 19.9971 640.968 18.9938 641.485 17.5947H647.104L653.543 23.6895L659.983 17.5947H664.779C663.145 18.7211 662.084 20.546 662.084 22.6045C662.084 26.025 665.013 28.7966 668.627 28.7969ZM37.9385 19.6152C37.9743 19.6489 42.4423 23.8394 48.1934 20.4521C54.9268 16.4852 49.2822 10.0254 49.2822 10.0254C49.4026 19.7479 37.9782 19.6157 37.9385 19.6152ZM769.248 20.4521C775.001 23.8405 779.47 19.6462 779.503 19.6152C779.479 19.6155 768.04 19.7547 768.159 10.0254C768.159 10.0254 762.514 16.4852 769.248 20.4521ZM210.662 17.7617C211.509 17.7615 212.197 17.0739 212.197 16.2266C212.197 15.379 211.51 14.6917 210.662 14.6914H210.553C209.705 14.6914 209.018 15.3788 209.018 16.2266C209.018 17.0741 209.705 17.7617 210.553 17.7617H210.662ZM217.868 17.7617C218.716 17.7615 219.403 17.0739 219.403 16.2266C219.403 15.379 218.716 14.6917 217.868 14.6914H217.649C216.802 14.6915 216.115 15.379 216.115 16.2266C216.115 17.074 216.802 17.7616 217.649 17.7617H217.868ZM225.074 17.7617C225.922 17.7615 226.609 17.074 226.609 16.2266C226.609 15.379 225.922 14.6916 225.074 14.6914H224.855C224.008 14.6916 223.321 15.379 223.321 16.2266C223.322 17.074 224.008 17.7615 224.855 17.7617H225.074ZM232.28 17.7617C233.128 17.7615 233.815 17.074 233.815 16.2266C233.815 15.379 233.128 14.6916 232.28 14.6914H232.062C231.214 14.6916 230.527 15.379 230.527 16.2266C230.528 17.074 231.214 17.7615 232.062 17.7617H232.28ZM239.486 17.7617C240.334 17.7615 241.021 17.074 241.021 16.2266C241.021 15.379 240.334 14.6916 239.486 14.6914H239.268C238.42 14.6917 237.733 15.379 237.733 16.2266C237.734 17.0739 238.42 17.7615 239.268 17.7617H239.486ZM246.692 17.7617C247.54 17.7615 248.227 17.074 248.228 16.2266C248.228 15.379 247.54 14.6916 246.692 14.6914H246.475C245.627 14.6914 244.939 15.3788 244.939 16.2266C244.94 17.0741 245.627 17.7617 246.475 17.7617H246.692ZM253.898 17.7617C254.746 17.7615 255.433 17.074 255.434 16.2266C255.434 15.379 254.746 14.6916 253.898 14.6914H253.681C252.833 14.6914 252.146 15.3788 252.146 16.2266C252.146 17.0741 252.833 17.7617 253.681 17.7617H253.898ZM261.104 17.7617C261.952 17.7615 262.639 17.074 262.64 16.2266C262.64 15.379 261.952 14.6916 261.104 14.6914H260.887C260.039 14.6914 259.352 15.3788 259.352 16.2266C259.352 17.0741 260.039 17.7617 260.887 17.7617H261.104ZM268.311 17.7617C269.158 17.7615 269.845 17.074 269.846 16.2266C269.846 15.379 269.158 14.6916 268.311 14.6914H268.093C267.245 14.6914 266.558 15.3788 266.558 16.2266C266.558 17.0741 267.245 17.7617 268.093 17.7617H268.311ZM275.517 17.7617C276.364 17.7615 277.052 17.074 277.052 16.2266C277.052 15.379 276.364 14.6916 275.517 14.6914H275.299C274.451 14.6914 273.764 15.3788 273.764 16.2266C273.764 17.0741 274.451 17.7617 275.299 17.7617H275.517ZM282.723 17.7617C283.57 17.7615 284.258 17.074 284.258 16.2266C284.258 15.379 283.57 14.6916 282.723 14.6914H282.505C281.657 14.6914 280.97 15.3788 280.97 16.2266C280.97 17.0741 281.657 17.7617 282.505 17.7617H282.723ZM289.93 17.7617C290.777 17.7613 291.464 17.0739 291.464 16.2266C291.464 15.3791 290.777 14.6918 289.93 14.6914H289.711C288.863 14.6914 288.176 15.3788 288.176 16.2266C288.176 17.0741 288.863 17.7617 289.711 17.7617H289.93ZM297.136 17.7617C297.983 17.7614 298.67 17.0739 298.67 16.2266C298.67 15.3791 297.983 14.6918 297.136 14.6914H296.917C296.069 14.6914 295.382 15.3788 295.382 16.2266C295.382 17.0741 296.069 17.7617 296.917 17.7617H297.136ZM304.342 17.7617C305.189 17.7614 305.876 17.0739 305.876 16.2266C305.876 15.3791 305.189 14.6918 304.342 14.6914H304.123C303.275 14.6914 302.588 15.3788 302.588 16.2266C302.588 17.0741 303.275 17.7617 304.123 17.7617H304.342ZM311.548 17.7617C312.395 17.7614 313.082 17.0739 313.082 16.2266C313.082 15.379 312.395 14.6917 311.548 14.6914H311.329C310.481 14.6915 309.794 15.3789 309.794 16.2266C309.794 17.074 310.482 17.7617 311.329 17.7617H311.548ZM318.754 17.7617C319.601 17.7614 320.288 17.0739 320.288 16.2266C320.288 15.379 319.601 14.6917 318.754 14.6914H318.535C317.688 14.6915 317 15.3789 317 16.2266C317 17.074 317.688 17.7617 318.535 17.7617H318.754ZM325.96 17.7617C326.807 17.7615 327.495 17.0739 327.495 16.2266C327.495 15.379 326.807 14.6917 325.96 14.6914H325.741C324.894 14.6915 324.206 15.3789 324.206 16.2266C324.206 17.074 324.894 17.7616 325.741 17.7617H325.96ZM333.166 17.7617C334.013 17.7615 334.701 17.074 334.701 16.2266C334.701 15.379 334.014 14.6917 333.166 14.6914H332.947C332.1 14.6915 331.413 15.379 331.413 16.2266C331.413 17.074 332.1 17.7616 332.947 17.7617H333.166ZM340.372 17.7617C341.219 17.7615 341.907 17.074 341.907 16.2266C341.907 15.379 341.22 14.6916 340.372 14.6914H340.153C339.306 14.6916 338.619 15.379 338.619 16.2266C338.619 17.074 339.306 17.7615 340.153 17.7617H340.372ZM347.578 17.7617C348.426 17.7615 349.113 17.074 349.113 16.2266C349.113 15.379 348.426 14.6916 347.578 14.6914H347.359C346.512 14.6917 345.825 15.379 345.825 16.2266C345.825 17.074 346.512 17.7615 347.359 17.7617H347.578ZM354.784 17.7617C355.632 17.7615 356.319 17.074 356.319 16.2266C356.319 15.379 355.632 14.6916 354.784 14.6914H354.565C353.718 14.6917 353.031 15.379 353.031 16.2266C353.031 17.0739 353.718 17.7615 354.565 17.7617H354.784ZM361.99 17.7617C362.838 17.7615 363.525 17.074 363.525 16.2266C363.525 15.379 362.838 14.6916 361.99 14.6914H361.772C360.925 14.6914 360.237 15.3788 360.237 16.2266C360.238 17.0741 360.925 17.7617 361.772 17.7617H361.99ZM369.196 17.7617C370.044 17.7615 370.731 17.074 370.731 16.2266C370.731 15.379 370.044 14.6916 369.196 14.6914H368.979C368.131 14.6914 367.443 15.3788 367.443 16.2266C367.444 17.0741 368.131 17.7617 368.979 17.7617H369.196ZM376.402 17.7617C377.25 17.7615 377.937 17.074 377.938 16.2266C377.938 15.379 377.25 14.6916 376.402 14.6914H376.185C375.337 14.6914 374.649 15.3788 374.649 16.2266C374.65 17.0741 375.337 17.7617 376.185 17.7617H376.402ZM383.608 17.7617C384.456 17.7615 385.143 17.074 385.144 16.2266C385.144 15.379 384.456 14.6916 383.608 14.6914H383.391C382.543 14.6914 381.855 15.3788 381.855 16.2266C381.856 17.0741 382.543 17.7617 383.391 17.7617H383.608ZM390.814 17.7617C391.662 17.7615 392.349 17.074 392.35 16.2266C392.35 15.379 391.662 14.6916 390.814 14.6914H390.597C389.749 14.6914 389.062 15.3788 389.062 16.2266C389.062 17.0741 389.749 17.7617 390.597 17.7617H390.814ZM398.021 17.7617C398.868 17.7615 399.555 17.074 399.556 16.2266C399.556 15.379 398.868 14.6916 398.021 14.6914H397.803C396.955 14.6914 396.268 15.3788 396.268 16.2266C396.268 17.0741 396.955 17.7617 397.803 17.7617H398.021ZM405.228 17.7617C406.075 17.7613 406.762 17.0739 406.762 16.2266C406.762 15.3791 406.075 14.6918 405.228 14.6914H405.009C404.161 14.6914 403.474 15.3788 403.474 16.2266C403.474 17.0741 404.161 17.7617 405.009 17.7617H405.228ZM412.434 17.7617C413.281 17.7614 413.968 17.0739 413.968 16.2266C413.968 15.3791 413.281 14.6918 412.434 14.6914H412.215C411.367 14.6914 410.68 15.3788 410.68 16.2266C410.68 17.0741 411.367 17.7617 412.215 17.7617H412.434ZM419.64 17.7617C420.487 17.7614 421.174 17.0739 421.174 16.2266C421.174 15.3791 420.487 14.6918 419.64 14.6914H419.421C418.573 14.6914 417.886 15.3788 417.886 16.2266C417.886 17.0741 418.573 17.7617 419.421 17.7617H419.64ZM426.846 17.7617C427.693 17.7614 428.38 17.0739 428.38 16.2266C428.38 15.3791 427.693 14.6917 426.846 14.6914H426.627C425.779 14.6915 425.092 15.3789 425.092 16.2266C425.092 17.074 425.779 17.7617 426.627 17.7617H426.846ZM434.052 17.7617C434.899 17.7614 435.586 17.0739 435.586 16.2266C435.586 15.379 434.899 14.6917 434.052 14.6914H433.833C432.985 14.6915 432.298 15.3789 432.298 16.2266C432.298 17.074 432.986 17.7617 433.833 17.7617H434.052ZM441.258 17.7617C442.105 17.7615 442.793 17.0739 442.793 16.2266C442.793 15.379 442.105 14.6917 441.258 14.6914H441.039C440.191 14.6915 439.504 15.3789 439.504 16.2266C439.504 17.074 440.192 17.7616 441.039 17.7617H441.258ZM448.464 17.7617C449.311 17.7615 449.999 17.074 449.999 16.2266C449.999 15.379 449.311 14.6917 448.464 14.6914H448.245C447.398 14.6915 446.711 15.379 446.711 16.2266C446.711 17.074 447.398 17.7616 448.245 17.7617H448.464ZM455.67 17.7617C456.517 17.7615 457.205 17.074 457.205 16.2266C457.205 15.379 456.517 14.6916 455.67 14.6914H455.451C454.604 14.6916 453.917 15.379 453.917 16.2266C453.917 17.074 454.604 17.7615 455.451 17.7617H455.67ZM462.876 17.7617C463.723 17.7615 464.411 17.074 464.411 16.2266C464.411 15.379 463.724 14.6916 462.876 14.6914H462.657C461.81 14.6916 461.123 15.379 461.123 16.2266C461.123 17.074 461.81 17.7615 462.657 17.7617H462.876ZM470.082 17.7617C470.929 17.7615 471.617 17.074 471.617 16.2266C471.617 15.379 470.93 14.6916 470.082 14.6914H469.863C469.016 14.6917 468.329 15.379 468.329 16.2266C468.329 17.0739 469.016 17.7615 469.863 17.7617H470.082ZM477.288 17.7617C478.136 17.7615 478.823 17.074 478.823 16.2266C478.823 15.379 478.136 14.6916 477.288 14.6914H477.07C476.223 14.6914 475.535 15.3788 475.535 16.2266C475.535 17.0741 476.223 17.7617 477.07 17.7617H477.288ZM484.494 17.7617C485.342 17.7615 486.029 17.074 486.029 16.2266C486.029 15.379 485.342 14.6916 484.494 14.6914H484.276C483.429 14.6914 482.741 15.3788 482.741 16.2266C482.741 17.0741 483.429 17.7617 484.276 17.7617H484.494ZM491.7 17.7617C492.548 17.7615 493.235 17.074 493.235 16.2266C493.235 15.379 492.548 14.6916 491.7 14.6914H491.482C490.635 14.6914 489.947 15.3788 489.947 16.2266C489.947 17.0741 490.635 17.7617 491.482 17.7617H491.7ZM498.906 17.7617C499.754 17.7615 500.441 17.074 500.441 16.2266C500.441 15.379 499.754 14.6916 498.906 14.6914H498.688C497.841 14.6914 497.153 15.3788 497.153 16.2266C497.154 17.0741 497.841 17.7617 498.688 17.7617H498.906ZM506.112 17.7617C506.96 17.7615 507.647 17.074 507.647 16.2266C507.647 15.379 506.96 14.6916 506.112 14.6914H505.895C505.047 14.6914 504.359 15.3788 504.359 16.2266C504.36 17.0741 505.047 17.7617 505.895 17.7617H506.112ZM513.318 17.7617C514.166 17.7615 514.853 17.074 514.854 16.2266C514.854 15.379 514.166 14.6916 513.318 14.6914H513.101C512.253 14.6914 511.565 15.3788 511.565 16.2266C511.566 17.0741 512.253 17.7617 513.101 17.7617H513.318ZM520.524 17.7617C521.372 17.7615 522.059 17.074 522.06 16.2266C522.06 15.379 521.372 14.6916 520.524 14.6914H520.307C519.459 14.6914 518.771 15.3788 518.771 16.2266C518.772 17.0741 519.459 17.7617 520.307 17.7617H520.524ZM527.731 17.7617C528.579 17.7614 529.265 17.0739 529.266 16.2266C529.266 15.3791 528.579 14.6918 527.731 14.6914H527.513C526.665 14.6914 525.978 15.3788 525.978 16.2266C525.978 17.0741 526.665 17.7617 527.513 17.7617H527.731ZM534.938 17.7617C535.785 17.7614 536.471 17.0739 536.472 16.2266C536.472 15.3791 535.785 14.6918 534.938 14.6914H534.719C533.871 14.6914 533.184 15.3788 533.184 16.2266C533.184 17.0741 533.871 17.7617 534.719 17.7617H534.938ZM542.144 17.7617C542.991 17.7614 543.677 17.0739 543.678 16.2266C543.678 15.3791 542.991 14.6917 542.144 14.6914H541.925C541.077 14.6915 540.39 15.3789 540.39 16.2266C540.39 17.074 541.077 17.7617 541.925 17.7617H542.144ZM549.35 17.7617C550.197 17.7614 550.884 17.0739 550.884 16.2266C550.884 15.379 550.197 14.6917 549.35 14.6914H549.131C548.283 14.6915 547.596 15.3789 547.596 16.2266C547.596 17.074 548.283 17.7617 549.131 17.7617H549.35ZM556.556 17.7617C557.403 17.7615 558.091 17.0739 558.091 16.2266C558.091 15.379 557.403 14.6917 556.556 14.6914H556.337C555.489 14.6915 554.802 15.3789 554.802 16.2266C554.802 17.074 555.489 17.7616 556.337 17.7617H556.556ZM563.762 17.7617C564.609 17.7615 565.297 17.0739 565.297 16.2266C565.297 15.379 564.609 14.6917 563.762 14.6914H563.543C562.695 14.6915 562.009 15.379 562.009 16.2266C562.009 17.074 562.695 17.7616 563.543 17.7617H563.762ZM570.968 17.7617C571.815 17.7615 572.503 17.074 572.503 16.2266C572.503 15.379 571.815 14.6916 570.968 14.6914H570.749C569.901 14.6916 569.215 15.379 569.215 16.2266C569.215 17.074 569.902 17.7615 570.749 17.7617H570.968ZM578.174 17.7617C579.021 17.7615 579.709 17.074 579.709 16.2266C579.709 15.379 579.021 14.6916 578.174 14.6914H577.955C577.108 14.6916 576.421 15.379 576.421 16.2266C576.421 17.074 577.108 17.7615 577.955 17.7617H578.174ZM585.38 17.7617C586.227 17.7615 586.915 17.074 586.915 16.2266C586.915 15.379 586.227 14.6916 585.38 14.6914H585.161C584.314 14.6917 583.627 15.379 583.627 16.2266C583.627 17.0739 584.314 17.7615 585.161 17.7617H585.38ZM592.586 17.7617C593.433 17.7615 594.121 17.074 594.121 16.2266C594.121 15.379 593.434 14.6916 592.586 14.6914H592.368C591.52 14.6914 590.833 15.3788 590.833 16.2266C590.833 17.0741 591.521 17.7617 592.368 17.7617H592.586ZM599.792 17.7617C600.639 17.7615 601.327 17.074 601.327 16.2266C601.327 15.379 600.64 14.6916 599.792 14.6914H599.574C598.727 14.6914 598.039 15.3788 598.039 16.2266C598.039 17.0741 598.727 17.7617 599.574 17.7617H599.792ZM606.89 17.7617C607.737 17.7613 608.424 17.0739 608.424 16.2266C608.424 15.3791 607.737 14.6918 606.89 14.6914H606.78C605.933 14.6914 605.245 15.3788 605.245 16.2266C605.245 17.0741 605.933 17.7617 606.78 17.7617H606.89ZM34.7754 49.1904C34.8198 49.1921 39.9054 49.3717 41.5938 46.6338C43.2825 43.8943 41.4552 39.2491 41.4424 39.2148C41.4446 39.2166 46.3778 40.9608 49.2832 39.3574C52.1846 37.7557 51.9859 32.9175 51.9854 32.9053C51.9854 32.9053 47.6486 40.2173 37.6895 35.6631C42.4827 45.0488 34.8378 49.1571 34.7754 49.1904ZM782.667 49.1904C782.608 49.1591 774.959 45.0511 779.753 35.6631C769.794 40.2174 765.457 32.9053 765.457 32.9053C765.457 32.9172 765.257 37.7557 768.159 39.3574C771.065 40.9611 775.998 39.2158 775.999 39.2148L775.997 39.2178C775.94 39.3649 774.181 43.9287 775.849 46.6338C777.537 49.373 782.627 49.1919 782.667 49.1904ZM10.5967 46.6338C10.6044 46.6398 17.4245 51.9719 21.6133 45.6035C25.1979 40.1567 20.7566 35.9271 20.7285 35.9004C20.7285 35.9004 20.8877 46.7487 10.5967 46.6338ZM795.827 45.6035C800.02 51.9753 806.846 46.6338 806.846 46.6338C796.554 46.7487 796.713 35.9004 796.713 35.9004C796.69 35.9221 792.242 40.1535 795.827 45.6035ZM43.0469 64.2803C43.0511 64.2655 45.229 56.7152 48.4609 54C51.6829 51.2941 60.6772 57.4367 60.7549 57.4902L60.7529 57.4873C60.608 57.2963 54.2261 48.8828 57.0654 45.8564C59.9377 42.7952 67.9307 40.7334 67.9307 40.7334C67.9307 40.7334 65.9772 40.1172 63.0312 40.1172C59.1941 40.1172 53.6722 41.1627 48.5859 45.9756C39.5955 54.483 43.0469 64.2803 43.0469 64.2803ZM774.395 64.2803C774.395 64.2803 777.846 54.483 768.855 45.9756C763.769 41.1636 758.247 40.1182 754.41 40.1172C751.464 40.1172 749.512 40.7334 749.512 40.7334C749.512 40.7334 757.504 42.7952 760.376 45.8564C763.215 48.8827 756.835 57.2958 756.689 57.4873L756.688 57.4902C756.768 57.4342 765.759 51.2946 768.981 54C772.216 56.7178 774.394 64.2797 774.395 64.2803ZM14.3389 453.475H16.877C16.877 451.824 15.8142 450.433 14.3389 449.914V444.278L20.7773 437.839L14.3389 431.399V426.592C15.5282 428.228 17.453 429.298 19.6318 429.298C23.2455 429.298 26.1755 426.369 26.1758 422.756C26.1758 419.141 23.2457 416.211 19.6318 416.211C17.4529 416.211 15.5282 417.28 14.3389 418.917V414.11L20.7773 407.67L14.3389 401.23V395.597C15.8142 395.077 16.8769 393.686 16.877 392.035H14.3389V368.472H14.4033V204.701H14.3389V181.138H16.877C16.877 179.487 15.8141 178.096 14.3389 177.577V171.941L20.7773 165.501L14.3389 159.062V154.254C15.5281 155.891 17.4528 156.961 19.6318 156.961C23.2456 156.961 26.1757 154.032 26.1758 150.418C26.1756 146.803 23.2456 143.873 19.6318 143.873C17.4528 143.873 15.5281 144.943 14.3389 146.58V141.773L20.7773 135.333L14.3389 128.894V123.259C15.814 122.739 16.8768 121.349 16.877 119.698H14.3389V96.1348H11.8379V119.698H9.29883C9.29898 121.349 10.3627 122.739 11.8379 123.259V128.894L5.39746 135.333L11.8379 141.773V146.58C10.6476 144.943 8.72389 143.873 6.54492 143.873C2.93012 143.873 0.000152544 146.803 0 150.418C7.4228e-05 154.032 2.93007 156.961 6.54492 156.961C8.72398 156.961 10.6476 155.891 11.8379 154.254V159.062L5.39746 165.501L11.8379 171.941V177.577C10.3626 178.096 9.29883 179.487 9.29883 181.138H11.8379V204.701H11.7725V368.472H11.8379V392.035H9.29883C9.29889 393.686 10.3625 395.077 11.8379 395.597V401.23L5.39746 407.67L11.8379 414.11V418.917C10.6476 417.28 8.72381 416.211 6.54492 416.211C2.93002 416.211 0 419.141 0 422.756C0.000317529 426.369 2.93022 429.298 6.54492 429.298C8.7238 429.298 10.6476 428.228 11.8379 426.592V431.399L5.39746 437.839L11.8379 444.278V449.914C10.3625 450.433 9.29883 451.824 9.29883 453.475H11.8379V477.038H14.3389V453.475ZM805.604 453.475H808.143C808.143 451.824 807.08 450.433 805.604 449.914V444.278L812.043 437.839L805.604 431.399V426.592C806.794 428.228 808.719 429.298 810.897 429.298C814.511 429.298 817.441 426.37 817.441 422.756C817.441 419.141 814.511 416.211 810.897 416.211C808.719 416.211 806.794 417.28 805.604 418.917V414.11L812.043 407.67L805.604 401.231V395.597C807.08 395.077 808.143 393.686 808.143 392.035H805.604V368.472H805.669V204.701H805.604V181.138H808.143C808.143 179.487 807.08 178.096 805.604 177.577V171.941L812.043 165.501L805.604 159.062V154.254C806.794 155.891 808.718 156.961 810.897 156.961C814.511 156.961 817.441 154.032 817.441 150.418C817.441 146.803 814.511 143.873 810.897 143.873C808.719 143.873 806.794 144.943 805.604 146.58V141.773L812.043 135.333L805.604 128.894V123.259C807.08 122.739 808.143 121.349 808.143 119.698H805.604V96.1348H803.104V119.698H800.564C800.565 121.349 801.628 122.739 803.104 123.259V128.894L796.663 135.333L803.104 141.773V146.58C801.913 144.943 799.99 143.873 797.811 143.873C794.196 143.873 791.266 146.803 791.266 150.418C791.266 154.032 794.196 156.961 797.811 156.961C799.99 156.961 801.913 155.891 803.104 154.254V159.062L796.663 165.501L803.104 171.941V177.577C801.628 178.096 800.564 179.487 800.564 181.138H803.104V204.701H803.038V368.472H803.104V392.035H800.564C800.564 393.686 801.628 395.077 803.104 395.597V401.231L796.663 407.67L803.104 414.11V418.917C801.913 417.28 799.989 416.211 797.811 416.211C794.196 416.211 791.266 419.141 791.266 422.756C791.266 426.37 794.196 429.298 797.811 429.298C799.989 429.298 801.913 428.228 803.104 426.592V431.399L796.663 437.839L803.104 444.278V449.914C801.628 450.433 800.564 451.824 800.564 453.475H803.104V477.038H805.604V453.475ZM25.4277 573.174C28.7707 569.668 27.8902 567.779 27.8809 567.759C32.7847 571.712 41.3205 571.025 43.5 565.354C45.6803 559.682 38.1425 556.328 35.3271 559.337C32.5162 562.34 35.4995 565.173 35.5088 565.182C35.4818 565.208 31.956 568.688 28.8496 564.437C28.6552 564.17 28.4732 563.897 28.3057 563.621C25.7018 559.34 26.7332 553.892 30.4238 550.4C34.9898 546.079 42.095 545.334 47.5791 548.561C52.0024 551.162 56.1539 554.503 57.9414 557.017C61.2856 561.724 54.4572 567.538 54.3994 567.587C63.8441 572.227 64.6602 563.031 64.6602 563.031C80.6441 574.72 89.5449 570.251 89.5449 570.251C86.8193 566.297 82.46 563.72 82.46 563.72C87.5457 558.047 80.2803 555.299 80.2803 555.299C71.9259 564.407 58.5449 552.892 58.5449 552.892C71.4413 555.699 74.5903 546.189 71.0791 542.063C67.5669 537.939 62.7827 537.767 59.9375 541.147C57.0929 544.528 59.7569 548.767 62.7236 548.022C65.6894 547.277 65.9922 543.095 65.9922 543.095C65.9922 543.095 69.5049 545.387 67.2041 548.939C64.9042 552.491 55.8213 550.772 55.8213 550.772C46.7431 540.579 34.7908 540.26 34.7832 540.26C34.7807 540.179 34.4109 528.915 23.6719 520.352C23.6719 520.352 21.8569 511.757 25.6104 509.58C29.3453 507.415 31.7615 510.693 31.7852 510.726C31.7488 510.728 27.3624 511.024 26.5781 513.819C25.7919 516.628 30.2729 519.148 33.8438 516.455C37.4157 513.763 37.2344 509.237 32.875 505.914C28.5164 502.591 18.4669 505.57 21.4336 517.772C21.4336 517.772 9.26344 505.112 18.8896 497.205C18.869 497.157 15.9624 490.348 9.99023 495.143C9.96194 495.1 7.24404 491.005 3.08789 488.44C3.08789 488.44 -1.63425 496.862 10.7168 511.986C10.6541 511.991 1.01629 512.789 5.9043 521.696C5.94762 521.651 12.0962 515.178 17.0732 518.346C19.7291 520.037 23.2602 523.965 26.0098 528.15C29.4192 533.341 28.6322 540.063 24.0664 544.384C20.3767 547.877 14.6178 548.853 10.0947 546.388C9.80366 546.23 9.51551 546.058 9.23242 545.874C4.72369 542.922 8.44629 539.571 8.44629 539.571C8.44629 539.571 11.4428 542.407 14.6221 539.744C17.8003 537.08 14.2582 529.948 8.26465 532.011C2.27115 534.072 1.54452 542.15 5.72266 546.791C5.72266 546.791 3.72357 545.931 0 549.111C0 549.111 13.6535 548.568 19.042 555.155C26.0043 560.253 25.4277 573.174 25.4277 573.174ZM792.013 573.174C792.013 573.174 791.439 560.253 798.401 555.155C803.777 548.582 817.383 549.109 817.441 549.111C813.718 545.931 811.719 546.791 811.719 546.791C815.897 542.15 815.171 534.072 809.178 532.011C803.184 529.948 799.641 537.08 802.82 539.744C805.99 542.399 808.978 539.588 808.995 539.571C808.995 539.571 812.719 542.922 808.209 545.874C807.927 546.058 807.639 546.23 807.347 546.388C802.825 548.853 797.067 547.877 793.377 544.384C788.811 540.063 788.022 533.341 791.432 528.15C794.182 523.965 797.712 520.037 800.368 518.346C805.364 515.167 811.539 521.696 811.539 521.696C816.436 512.773 806.754 511.989 806.726 511.986C819.034 496.913 814.386 488.497 814.354 488.44C810.196 491.007 807.476 495.104 807.451 495.143C801.476 490.345 798.57 497.165 798.553 497.205C808.148 505.087 796.084 517.695 796.01 517.772C798.976 505.57 788.926 502.592 784.567 505.914C780.207 509.237 780.027 513.763 783.598 516.455C787.17 519.148 791.651 516.628 790.863 513.819C790.078 511.019 785.676 510.727 785.656 510.726C785.676 510.699 788.093 507.413 791.832 509.58C795.586 511.757 793.77 520.352 793.77 520.352C783.03 528.915 782.662 540.179 782.659 540.26C782.603 540.261 770.681 540.599 761.621 550.772C761.621 550.772 752.539 552.491 750.238 548.939C747.938 545.387 751.45 543.095 751.45 543.095C751.45 543.095 751.753 547.277 754.719 548.022C757.685 548.767 760.35 544.528 757.504 541.147C754.658 537.767 749.876 537.939 746.364 542.063C742.853 546.189 746.001 555.699 758.896 552.892C758.896 552.892 745.516 564.407 737.162 555.299C737.162 555.299 729.897 558.047 734.981 563.72C734.964 563.73 730.617 566.305 727.897 570.251C727.897 570.251 736.797 574.72 752.782 563.031C752.782 563.031 753.599 572.227 763.043 567.587C763.043 567.587 756.142 561.744 759.502 557.017C761.289 554.504 765.44 551.162 769.862 548.561C775.346 545.334 782.452 546.079 787.018 550.4C790.709 553.892 791.741 559.34 789.137 563.621C788.968 563.897 788.787 564.17 788.593 564.437C785.481 568.693 781.95 565.198 781.933 565.182C781.933 565.182 784.931 562.344 782.115 559.337C779.3 556.329 771.762 559.682 773.941 565.354C776.122 571.025 784.658 571.712 789.562 567.759C789.562 567.759 788.653 569.649 792.013 573.174ZM48.5859 527.197C57.5763 535.706 67.9307 532.438 67.9307 532.438C67.9307 532.438 59.9376 530.377 57.0654 527.315C54.1943 524.255 60.7529 515.686 60.7559 515.683L60.752 515.685C60.5514 515.821 51.6603 521.86 48.4609 519.173C45.2259 516.455 43.0469 508.893 43.0469 508.893C43.0469 508.893 39.5955 518.69 48.5859 527.197ZM749.512 532.438C749.512 532.438 759.865 535.705 768.855 527.197C777.846 518.69 774.395 508.893 774.395 508.893C774.395 508.893 772.216 516.455 768.981 519.173C765.757 521.88 756.756 515.729 756.688 515.683C756.737 515.747 763.237 524.266 760.376 527.315C757.504 530.377 749.512 532.438 749.512 532.438ZM51.9854 540.267C51.9868 540.23 52.1773 535.412 49.2832 533.814C46.3771 532.21 41.4424 533.957 41.4424 533.957L41.4434 533.956C41.4842 533.851 43.2698 529.256 41.5947 526.538C40.1073 524.127 35.9832 523.979 34.9912 523.979C34.8556 523.979 34.7794 523.981 34.7754 523.981C34.8236 524.007 42.4875 528.115 37.6895 537.509C47.6214 532.969 51.9615 540.227 51.9854 540.267ZM765.457 540.267C765.472 540.241 769.811 532.964 779.753 537.509C774.959 528.124 782.604 524.015 782.667 523.981C782.661 523.981 782.584 523.979 782.451 523.979C781.459 523.979 777.335 524.127 775.849 526.538C774.173 529.256 775.957 533.851 775.998 533.956L775.999 533.957H775.997C775.885 533.918 771.032 532.228 768.159 533.814C765.264 535.412 765.456 540.229 765.457 540.267ZM20.7285 537.273C20.7526 537.251 25.1993 533.019 21.6133 527.57C20.0481 525.189 18.1131 524.442 16.3047 524.442C13.2731 524.442 10.5967 526.538 10.5967 526.538C20.8795 526.424 20.7288 537.256 20.7285 537.273ZM796.713 537.273C796.713 537.255 796.562 526.424 806.846 526.538C806.827 526.523 804.158 524.442 801.137 524.442C799.328 524.442 797.394 525.189 795.827 527.57C792.247 533.013 796.68 537.242 796.713 537.273ZM148.814 569.146C152.428 569.146 155.358 566.373 155.358 562.953C155.358 560.894 154.296 559.071 152.662 557.944H157.459L163.898 564.038L170.339 557.944H175.957C176.475 559.343 177.881 560.346 179.534 560.346V557.944H203.098V555.577H179.534V553.175C177.881 553.175 176.474 554.179 175.957 555.577H170.339L163.898 549.483L157.459 555.577H152.662C154.296 554.452 155.358 552.627 155.358 550.567C155.358 547.149 152.428 544.375 148.814 544.375C145.201 544.375 142.27 547.149 142.27 550.567C142.27 552.627 143.331 554.452 144.965 555.577H140.169L133.729 549.483L127.29 555.577H121.671C121.155 554.179 119.749 553.175 118.095 553.175V555.577H94.5303V557.944H118.095V560.346C119.748 560.346 121.154 559.343 121.671 557.944H127.29L133.729 564.038L140.169 557.944H144.965C143.331 559.071 142.27 560.894 142.27 562.953C142.27 566.373 145.201 569.146 148.814 569.146ZM668.628 569.146C672.243 569.146 675.173 566.373 675.173 562.953C675.173 560.894 674.11 559.071 672.477 557.944H677.272L683.712 564.038L690.152 557.944H695.771C696.289 559.343 697.695 560.346 699.349 560.346V557.944H722.911V555.577H699.349V553.175C697.695 553.175 696.289 554.179 695.771 555.577H690.152L683.712 549.483L677.272 555.577H672.477C674.111 554.452 675.173 552.627 675.173 550.567C675.173 547.149 672.243 544.375 668.628 544.375C665.014 544.375 662.084 547.149 662.084 550.567C662.084 552.627 663.145 554.452 664.779 555.577H659.983L653.543 549.483L647.104 555.577H641.486C640.969 554.179 639.562 553.175 637.908 553.175V555.577H614.345V557.944H637.908V560.346C639.562 560.346 640.969 559.343 641.486 557.944H647.104L653.543 564.038L659.983 557.944H664.779C663.146 559.071 662.084 560.894 662.084 562.953C662.084 566.373 665.014 569.146 668.628 569.146ZM49.2822 563.146C49.2822 563.146 54.9271 556.687 48.1934 552.721C46.5404 551.747 44.9928 551.398 43.626 551.398C40.2401 551.398 37.9646 553.533 37.9385 553.558C37.9385 553.558 49.4027 553.408 49.2822 563.146ZM768.159 563.146C768.04 553.43 779.452 553.557 779.503 553.558C779.471 553.528 777.197 551.398 773.815 551.398C772.449 551.398 770.902 551.746 769.249 552.721C762.515 556.687 768.159 563.146 768.159 563.146ZM210.662 558.483C211.51 558.483 212.197 557.796 212.197 556.948C212.197 556.101 211.51 555.413 210.662 555.413H210.553C209.705 555.413 209.018 556.101 209.018 556.948C209.018 557.796 209.705 558.483 210.553 558.483H210.662ZM217.868 558.483C218.716 558.483 219.403 557.796 219.403 556.948C219.403 556.101 218.716 555.413 217.868 555.413H217.649C216.802 555.413 216.115 556.101 216.115 556.948C216.115 557.796 216.802 558.483 217.649 558.483H217.868ZM225.074 558.483C225.922 558.483 226.609 557.796 226.609 556.948C226.609 556.101 225.922 555.413 225.074 555.413H224.855C224.008 555.413 223.321 556.101 223.321 556.948C223.322 557.796 224.008 558.483 224.855 558.483H225.074ZM232.28 558.483C233.128 558.483 233.815 557.796 233.815 556.948C233.815 556.101 233.128 555.413 232.28 555.413H232.062C231.214 555.413 230.527 556.101 230.527 556.948C230.528 557.796 231.214 558.483 232.062 558.483H232.28ZM239.486 558.483C240.334 558.483 241.021 557.796 241.021 556.948C241.021 556.101 240.334 555.413 239.486 555.413H239.268C238.42 555.413 237.733 556.101 237.733 556.948C237.734 557.796 238.42 558.483 239.268 558.483H239.486ZM246.692 558.483C247.54 558.483 248.227 557.796 248.228 556.948C248.228 556.101 247.54 555.413 246.692 555.413H246.475C245.627 555.413 244.939 556.101 244.939 556.948C244.94 557.796 245.627 558.483 246.475 558.483H246.692ZM253.898 558.483C254.746 558.483 255.433 557.796 255.434 556.948C255.434 556.101 254.746 555.413 253.898 555.413H253.681C252.833 555.413 252.146 556.101 252.146 556.948C252.146 557.796 252.833 558.483 253.681 558.483H253.898ZM261.104 558.483C261.952 558.483 262.639 557.796 262.64 556.948C262.64 556.101 261.952 555.413 261.104 555.413H260.887C260.039 555.413 259.352 556.101 259.352 556.948C259.352 557.796 260.039 558.483 260.887 558.483H261.104ZM268.311 558.483C269.158 558.483 269.845 557.796 269.846 556.948C269.846 556.101 269.158 555.413 268.311 555.413H268.093C267.245 555.413 266.558 556.101 266.558 556.948C266.558 557.796 267.245 558.483 268.093 558.483H268.311ZM275.517 558.483C276.364 558.483 277.052 557.796 277.052 556.948C277.052 556.101 276.364 555.413 275.517 555.413H275.299C274.451 555.413 273.764 556.101 273.764 556.948C273.764 557.796 274.451 558.483 275.299 558.483H275.517ZM282.723 558.483C283.57 558.483 284.258 557.796 284.258 556.948C284.258 556.101 283.57 555.413 282.723 555.413H282.505C281.657 555.413 280.97 556.101 280.97 556.948C280.97 557.796 281.657 558.483 282.505 558.483H282.723ZM289.93 558.483C290.777 558.483 291.464 557.796 291.464 556.948C291.464 556.101 290.777 555.413 289.93 555.413H289.711C288.863 555.413 288.176 556.101 288.176 556.948C288.176 557.796 288.863 558.483 289.711 558.483H289.93ZM297.136 558.483C297.983 558.483 298.67 557.796 298.67 556.948C298.67 556.101 297.983 555.413 297.136 555.413H296.917C296.069 555.413 295.382 556.101 295.382 556.948C295.382 557.796 296.069 558.483 296.917 558.483H297.136ZM304.342 558.483C305.189 558.483 305.876 557.796 305.876 556.948C305.876 556.101 305.189 555.413 304.342 555.413H304.123C303.275 555.413 302.588 556.101 302.588 556.948C302.588 557.796 303.276 558.483 304.123 558.483H304.342ZM311.548 558.483C312.395 558.483 313.082 557.796 313.082 556.948C313.082 556.101 312.395 555.413 311.548 555.413H311.329C310.481 555.413 309.794 556.101 309.794 556.948C309.794 557.796 310.482 558.483 311.329 558.483H311.548ZM318.754 558.483C319.601 558.483 320.288 557.796 320.288 556.948C320.288 556.101 319.601 555.413 318.754 555.413H318.535C317.688 555.413 317 556.101 317 556.948C317 557.796 317.688 558.483 318.535 558.483H318.754ZM325.96 558.483C326.807 558.483 327.495 557.796 327.495 556.948C327.495 556.101 326.808 555.413 325.96 555.413H325.741C324.894 555.413 324.206 556.101 324.206 556.948C324.206 557.796 324.894 558.483 325.741 558.483H325.96ZM333.166 558.483C334.013 558.483 334.701 557.796 334.701 556.948C334.701 556.101 334.014 555.413 333.166 555.413H332.947C332.1 555.413 331.413 556.101 331.413 556.948C331.413 557.796 332.1 558.483 332.947 558.483H333.166ZM340.372 558.483C341.22 558.483 341.907 557.796 341.907 556.948C341.907 556.101 341.22 555.413 340.372 555.413H340.153C339.306 555.413 338.619 556.101 338.619 556.948C338.619 557.796 339.306 558.483 340.153 558.483H340.372ZM347.578 558.483C348.426 558.483 349.113 557.796 349.113 556.948C349.113 556.101 348.426 555.413 347.578 555.413H347.359C346.512 555.413 345.825 556.101 345.825 556.948C345.825 557.796 346.512 558.483 347.359 558.483H347.578ZM354.784 558.483C355.632 558.483 356.319 557.796 356.319 556.948C356.319 556.101 355.632 555.413 354.784 555.413H354.565C353.718 555.413 353.031 556.101 353.031 556.948C353.031 557.796 353.718 558.483 354.565 558.483H354.784ZM361.99 558.483C362.838 558.483 363.525 557.796 363.525 556.948C363.525 556.101 362.838 555.413 361.99 555.413H361.772C360.925 555.413 360.237 556.101 360.237 556.948C360.238 557.796 360.925 558.483 361.772 558.483H361.99ZM369.196 558.483C370.044 558.483 370.731 557.796 370.731 556.948C370.731 556.101 370.044 555.413 369.196 555.413H368.979C368.131 555.413 367.443 556.101 367.443 556.948C367.444 557.796 368.131 558.483 368.979 558.483H369.196ZM376.402 558.483C377.25 558.483 377.937 557.796 377.938 556.948C377.938 556.101 377.25 555.413 376.402 555.413H376.185C375.337 555.413 374.649 556.101 374.649 556.948C374.65 557.796 375.337 558.483 376.185 558.483H376.402ZM383.608 558.483C384.456 558.483 385.143 557.796 385.144 556.948C385.144 556.101 384.456 555.413 383.608 555.413H383.391C382.543 555.413 381.855 556.101 381.855 556.948C381.856 557.796 382.543 558.483 383.391 558.483H383.608ZM390.814 558.483C391.662 558.483 392.349 557.796 392.35 556.948C392.35 556.101 391.662 555.413 390.814 555.413H390.597C389.749 555.413 389.062 556.101 389.062 556.948C389.062 557.796 389.749 558.483 390.597 558.483H390.814ZM398.021 558.483C398.868 558.483 399.555 557.796 399.556 556.948C399.556 556.101 398.868 555.413 398.021 555.413H397.803C396.955 555.413 396.268 556.101 396.268 556.948C396.268 557.796 396.955 558.483 397.803 558.483H398.021ZM405.228 558.483C406.075 558.483 406.761 557.796 406.762 556.948C406.762 556.101 406.075 555.413 405.228 555.413H405.009C404.161 555.413 403.474 556.101 403.474 556.948C403.474 557.796 404.161 558.483 405.009 558.483H405.228ZM412.434 558.483C413.281 558.483 413.968 557.796 413.968 556.948C413.968 556.101 413.281 555.413 412.434 555.413H412.215C411.367 555.413 410.68 556.101 410.68 556.948C410.68 557.796 411.367 558.483 412.215 558.483H412.434ZM419.64 558.483C420.487 558.483 421.174 557.796 421.174 556.948C421.174 556.101 420.487 555.413 419.64 555.413H419.421C418.573 555.413 417.886 556.101 417.886 556.948C417.886 557.796 418.573 558.483 419.421 558.483H419.64ZM426.846 558.483C427.693 558.483 428.38 557.796 428.38 556.948C428.38 556.101 427.693 555.413 426.846 555.413H426.627C425.779 555.413 425.092 556.101 425.092 556.948C425.092 557.796 425.779 558.483 426.627 558.483H426.846ZM434.052 558.483C434.899 558.483 435.586 557.796 435.586 556.948C435.586 556.101 434.899 555.413 434.052 555.413H433.833C432.985 555.413 432.298 556.101 432.298 556.948C432.298 557.796 432.986 558.483 433.833 558.483H434.052ZM441.258 558.483C442.105 558.483 442.793 557.796 442.793 556.948C442.793 556.101 442.105 555.413 441.258 555.413H441.039C440.191 555.413 439.504 556.101 439.504 556.948C439.504 557.796 440.192 558.483 441.039 558.483H441.258ZM448.464 558.483C449.311 558.483 449.999 557.796 449.999 556.948C449.999 556.101 449.311 555.413 448.464 555.413H448.245C447.398 555.413 446.711 556.101 446.711 556.948C446.711 557.796 447.398 558.483 448.245 558.483H448.464ZM455.67 558.483C456.517 558.483 457.205 557.796 457.205 556.948C457.205 556.101 456.518 555.413 455.67 555.413H455.451C454.604 555.413 453.917 556.101 453.917 556.948C453.917 557.796 454.604 558.483 455.451 558.483H455.67ZM462.876 558.483C463.723 558.483 464.411 557.796 464.411 556.948C464.411 556.101 463.724 555.413 462.876 555.413H462.657C461.81 555.413 461.123 556.101 461.123 556.948C461.123 557.796 461.81 558.483 462.657 558.483H462.876ZM470.082 558.483C470.93 558.483 471.617 557.796 471.617 556.948C471.617 556.101 470.93 555.413 470.082 555.413H469.863C469.016 555.413 468.329 556.101 468.329 556.948C468.329 557.796 469.016 558.483 469.863 558.483H470.082ZM477.288 558.483C478.136 558.483 478.823 557.796 478.823 556.948C478.823 556.101 478.136 555.413 477.288 555.413H477.07C476.223 555.413 475.535 556.101 475.535 556.948C475.535 557.796 476.223 558.483 477.07 558.483H477.288ZM484.494 558.483C485.342 558.483 486.029 557.796 486.029 556.948C486.029 556.101 485.342 555.413 484.494 555.413H484.276C483.429 555.413 482.741 556.101 482.741 556.948C482.741 557.796 483.429 558.483 484.276 558.483H484.494ZM491.7 558.483C492.548 558.483 493.235 557.796 493.235 556.948C493.235 556.101 492.548 555.413 491.7 555.413H491.482C490.635 555.413 489.947 556.101 489.947 556.948C489.948 557.796 490.635 558.483 491.482 558.483H491.7ZM498.906 558.483C499.754 558.483 500.441 557.796 500.441 556.948C500.441 556.101 499.754 555.413 498.906 555.413H498.688C497.841 555.413 497.153 556.101 497.153 556.948C497.154 557.796 497.841 558.483 498.688 558.483H498.906ZM506.112 558.483C506.96 558.483 507.647 557.796 507.647 556.948C507.647 556.101 506.96 555.413 506.112 555.413H505.895C505.047 555.413 504.359 556.101 504.359 556.948C504.36 557.796 505.047 558.483 505.895 558.483H506.112ZM513.318 558.483C514.166 558.483 514.853 557.796 514.854 556.948C514.854 556.101 514.166 555.413 513.318 555.413H513.101C512.253 555.413 511.565 556.101 511.565 556.948C511.566 557.796 512.253 558.483 513.101 558.483H513.318ZM520.524 558.483C521.372 558.483 522.059 557.796 522.06 556.948C522.06 556.101 521.372 555.413 520.524 555.413H520.307C519.459 555.413 518.771 556.101 518.771 556.948C518.772 557.796 519.459 558.483 520.307 558.483H520.524ZM527.731 558.483C528.579 558.483 529.265 557.796 529.266 556.948C529.266 556.101 528.579 555.413 527.731 555.413H527.513C526.665 555.413 525.978 556.101 525.978 556.948C525.978 557.796 526.665 558.483 527.513 558.483H527.731ZM534.938 558.483C535.785 558.483 536.471 557.796 536.472 556.948C536.472 556.101 535.785 555.413 534.938 555.413H534.719C533.871 555.413 533.184 556.101 533.184 556.948C533.184 557.796 533.871 558.483 534.719 558.483H534.938ZM542.144 558.483C542.991 558.483 543.677 557.796 543.678 556.948C543.678 556.101 542.991 555.413 542.144 555.413H541.925C541.077 555.413 540.39 556.101 540.39 556.948C540.39 557.796 541.077 558.483 541.925 558.483H542.144ZM549.35 558.483C550.197 558.483 550.884 557.796 550.884 556.948C550.884 556.101 550.197 555.413 549.35 555.413H549.131C548.283 555.413 547.596 556.101 547.596 556.948C547.596 557.796 548.283 558.483 549.131 558.483H549.35ZM556.556 558.483C557.403 558.483 558.091 557.796 558.091 556.948C558.091 556.101 557.403 555.413 556.556 555.413H556.337C555.489 555.413 554.802 556.101 554.802 556.948C554.802 557.796 555.489 558.483 556.337 558.483H556.556ZM563.762 558.483C564.609 558.483 565.297 557.796 565.297 556.948C565.297 556.101 564.609 555.413 563.762 555.413H563.543C562.695 555.413 562.009 556.101 562.009 556.948C562.009 557.796 562.696 558.483 563.543 558.483H563.762ZM570.968 558.483C571.815 558.483 572.503 557.796 572.503 556.948C572.503 556.101 571.815 555.413 570.968 555.413H570.749C569.901 555.413 569.215 556.101 569.215 556.948C569.215 557.796 569.902 558.483 570.749 558.483H570.968ZM578.174 558.483C579.021 558.483 579.709 557.796 579.709 556.948C579.709 556.101 579.021 555.413 578.174 555.413H577.955C577.108 555.413 576.421 556.101 576.421 556.948C576.421 557.796 577.108 558.483 577.955 558.483H578.174ZM585.38 558.483C586.227 558.483 586.915 557.796 586.915 556.948C586.915 556.101 586.228 555.413 585.38 555.413H585.161C584.314 555.413 583.627 556.101 583.627 556.948C583.627 557.796 584.314 558.483 585.161 558.483H585.38ZM592.586 558.483C593.433 558.483 594.121 557.796 594.121 556.948C594.121 556.101 593.434 555.413 592.586 555.413H592.368C591.52 555.413 590.833 556.101 590.833 556.948C590.833 557.796 591.521 558.483 592.368 558.483H592.586ZM599.792 558.483C600.639 558.483 601.327 557.796 601.327 556.948C601.327 556.101 600.64 555.413 599.792 555.413H599.574C598.727 555.413 598.039 556.101 598.039 556.948C598.039 557.796 598.727 558.483 599.574 558.483H599.792ZM606.89 558.483C607.737 558.483 608.424 557.796 608.424 556.948C608.424 556.101 607.737 555.413 606.89 555.413H606.78C605.933 555.413 605.245 556.101 605.245 556.948C605.245 557.796 605.933 558.483 606.78 558.483H606.89ZM18.5947 571.862C18.5946 562.868 10.8895 555.577 1.38574 555.577V571.862H18.5947ZM816.057 555.577C806.552 555.577 798.848 562.868 798.848 571.862H816.057V555.577Z" fill="url(#paint0_linear_1680_5306)"/>
<defs>
<linearGradient id="paint0_linear_1680_5306" x1="-282.588" y1="-14307.2" x2="1565.57" y2="-14275.3" gradientUnits="userSpaceOnUse">
<stop offset="0.192458" stop-color="#9C6B32"/>
<stop offset="0.402404" stop-color="#DBBB96"/>
<stop offset="0.614201" stop-color="#D0A674"/>
<stop offset="0.807016" stop-color="#9C6B32"/>
</linearGradient>
</defs>
</svg>
