<svg width="415" height="14" viewBox="0 0 415 14" fill="none" xmlns="http://www.w3.org/2000/svg">
<path d="M33.4016 6.81186C33.4016 6.38441 33.055 6.03789 32.6276 6.03789H22.2451C21.9036 4.79156 20.774 3.86922 19.4187 3.86922C18.3981 3.86922 17.4991 4.38973 16.9718 5.17974C16.0602 3.70186 14.5307 1.75406 12.797 1.75406C10.0037 1.75406 0 6.81233 0 6.81233C0 6.81233 10.0037 11.8706 12.797 11.8706C14.5307 11.8706 16.0602 9.9228 16.9718 8.44394C17.4991 9.23299 18.3981 9.75544 19.4187 9.75544C20.774 9.75544 21.9036 8.8341 22.2451 7.58583H32.6276C33.055 7.58583 33.4016 7.23931 33.4016 6.81186Z" fill="url(#paint0_linear_1680_5347)"/>
<path d="M382.476 6.81246C382.476 6.38501 382.13 6.03849 381.702 6.03849H32.5254V7.58643H381.702C382.13 7.58643 382.476 7.23991 382.476 6.81246Z" fill="url(#paint1_linear_1680_5347)"/>
<path d="M381.598 6.81186C381.598 6.38441 381.945 6.03789 382.372 6.03789H392.755C393.096 4.79156 394.226 3.86922 395.581 3.86922C396.602 3.86922 397.501 4.38973 398.028 5.17974C398.94 3.70186 400.469 1.75406 402.203 1.75406C404.996 1.75406 415 6.81233 415 6.81233C415 6.81233 404.996 11.8706 402.203 11.8706C400.469 11.8706 398.94 9.9228 398.028 8.44394C397.501 9.23299 396.602 9.75544 395.581 9.75544C394.226 9.75544 393.096 8.8341 392.755 7.58583H382.372C381.945 7.58583 381.598 7.23931 381.598 6.81186Z" fill="url(#paint2_linear_1680_5347)"/>
<defs>
<linearGradient id="paint0_linear_1680_5347" x1="96.7183" y1="-4.56262" x2="96.7183" y2="15.3804" gradientUnits="userSpaceOnUse">
<stop offset="0.001155" stop-color="#835A2A"/>
<stop offset="1" stop-color="#F0E3D7"/>
</linearGradient>
<linearGradient id="paint1_linear_1680_5347" x1="1045.85" y1="5.07198" x2="1045.85" y2="8.12346" gradientUnits="userSpaceOnUse">
<stop offset="0.001155" stop-color="#835A2A"/>
<stop offset="1" stop-color="#F0E3D7"/>
</linearGradient>
<linearGradient id="paint2_linear_1680_5347" x1="318.282" y1="-4.56262" x2="318.282" y2="15.3804" gradientUnits="userSpaceOnUse">
<stop offset="0.001155" stop-color="#835A2A"/>
<stop offset="1" stop-color="#F0E3D7"/>
</linearGradient>
</defs>
</svg>
